<mxfile host="app.diagrams.net" modified="2023-02-13T12:34:09.691Z" agent="5.0 (Windows NT 10.0; Win64; x64) AppleWebKit/537.36 (KHTML, like Gecko) Chrome/110.0.0.0 Safari/537.36" etag="B_k4573HyhTn1xTQN5Je" version="20.8.20" type="github">
  <diagram name="第 1 页" id="_-cEPPimM-bPHeNvY0Tm">
    <mxGraphModel dx="1127" dy="577" grid="1" gridSize="10" guides="1" tooltips="1" connect="1" arrows="1" fold="1" page="1" pageScale="1" pageWidth="827" pageHeight="1169" math="0" shadow="0">
      <root>
        <mxCell id="0" />
        <mxCell id="1" parent="0" />
        <mxCell id="IQGEfThaRfZfYVo38_s_-76" value="" style="verticalLabelPosition=bottom;verticalAlign=top;html=1;shape=mxgraph.basic.rect;fillColor2=none;strokeWidth=1;size=20;indent=5;fillStyle=auto;fillColor=none;strokeColor=#0af5c6;" vertex="1" parent="1">
          <mxGeometry x="135" y="40" width="590" height="200" as="geometry" />
        </mxCell>
        <mxCell id="IQGEfThaRfZfYVo38_s_-1" value="监听缓冲区" style="rounded=1;whiteSpace=wrap;html=1;strokeColor=#16f3ef;" vertex="1" parent="1">
          <mxGeometry x="230" y="80" width="70" height="50" as="geometry" />
        </mxCell>
        <mxCell id="IQGEfThaRfZfYVo38_s_-2" value="拓扑发现和选择" style="rounded=1;whiteSpace=wrap;html=1;strokeColor=#16f3ef;" vertex="1" parent="1">
          <mxGeometry x="395" y="80" width="70" height="50" as="geometry" />
        </mxCell>
        <mxCell id="IQGEfThaRfZfYVo38_s_-3" value="路径计算" style="rounded=1;whiteSpace=wrap;html=1;strokeColor=#16f3ef;" vertex="1" parent="1">
          <mxGeometry x="550" y="80" width="80" height="50" as="geometry" />
        </mxCell>
        <mxCell id="IQGEfThaRfZfYVo38_s_-4" value="SDN控制器" style="rounded=1;whiteSpace=wrap;html=1;strokeColor=#16f3ef;" vertex="1" parent="1">
          <mxGeometry x="160" y="180" width="540" height="50" as="geometry" />
        </mxCell>
        <mxCell id="IQGEfThaRfZfYVo38_s_-5" value="S1" style="rounded=1;whiteSpace=wrap;html=1;strokeColor=#16f3ef;" vertex="1" parent="1">
          <mxGeometry x="300" y="270" width="50" height="50" as="geometry" />
        </mxCell>
        <mxCell id="IQGEfThaRfZfYVo38_s_-6" value="S3" style="rounded=1;whiteSpace=wrap;html=1;strokeColor=#16f3ef;" vertex="1" parent="1">
          <mxGeometry x="300" y="370" width="50" height="50" as="geometry" />
        </mxCell>
        <mxCell id="IQGEfThaRfZfYVo38_s_-7" value="S2" style="rounded=1;whiteSpace=wrap;html=1;strokeColor=#16f3ef;" vertex="1" parent="1">
          <mxGeometry x="530" y="270" width="50" height="50" as="geometry" />
        </mxCell>
        <mxCell id="IQGEfThaRfZfYVo38_s_-9" value="" style="shape=cylinder3;whiteSpace=wrap;html=1;boundedLbl=1;backgroundOutline=1;size=15;strokeColor=#16f3ef;" vertex="1" parent="1">
          <mxGeometry x="450" y="410" width="60" height="80" as="geometry" />
        </mxCell>
        <mxCell id="IQGEfThaRfZfYVo38_s_-11" value="H1" style="ellipse;whiteSpace=wrap;html=1;aspect=fixed;strokeColor=#16f3ef;" vertex="1" parent="1">
          <mxGeometry x="190" y="350" width="30" height="30" as="geometry" />
        </mxCell>
        <mxCell id="IQGEfThaRfZfYVo38_s_-12" value="H2" style="ellipse;whiteSpace=wrap;html=1;aspect=fixed;strokeColor=#16f3ef;" vertex="1" parent="1">
          <mxGeometry x="640" y="350" width="30" height="30" as="geometry" />
        </mxCell>
        <mxCell id="IQGEfThaRfZfYVo38_s_-16" value="" style="endArrow=none;html=1;rounded=0;shape=link;exitX=1;exitY=0.5;exitDx=0;exitDy=0;entryX=0;entryY=0.5;entryDx=0;entryDy=0;width=1;" edge="1" parent="1" source="IQGEfThaRfZfYVo38_s_-6" target="IQGEfThaRfZfYVo38_s_-7">
          <mxGeometry width="50" height="50" relative="1" as="geometry">
            <mxPoint x="390" y="350" as="sourcePoint" />
            <mxPoint x="440" y="300" as="targetPoint" />
          </mxGeometry>
        </mxCell>
        <mxCell id="IQGEfThaRfZfYVo38_s_-17" value="" style="endArrow=none;html=1;rounded=0;shape=link;exitX=1;exitY=0.5;exitDx=0;exitDy=0;entryX=0;entryY=0.5;entryDx=0;entryDy=0;width=-1;" edge="1" parent="1" source="IQGEfThaRfZfYVo38_s_-5" target="IQGEfThaRfZfYVo38_s_-7">
          <mxGeometry width="50" height="50" relative="1" as="geometry">
            <mxPoint x="360" y="405" as="sourcePoint" />
            <mxPoint x="540" y="305" as="targetPoint" />
          </mxGeometry>
        </mxCell>
        <mxCell id="IQGEfThaRfZfYVo38_s_-18" value="" style="endArrow=none;html=1;rounded=0;shape=link;exitX=0.5;exitY=1;exitDx=0;exitDy=0;" edge="1" parent="1" source="IQGEfThaRfZfYVo38_s_-5" target="IQGEfThaRfZfYVo38_s_-6">
          <mxGeometry width="50" height="50" relative="1" as="geometry">
            <mxPoint x="370" y="415" as="sourcePoint" />
            <mxPoint x="550" y="315" as="targetPoint" />
          </mxGeometry>
        </mxCell>
        <mxCell id="IQGEfThaRfZfYVo38_s_-19" value="" style="endArrow=none;html=1;rounded=0;shape=link;exitX=1;exitY=0;exitDx=0;exitDy=0;entryX=0;entryY=0.5;entryDx=0;entryDy=0;width=-1;" edge="1" parent="1" source="IQGEfThaRfZfYVo38_s_-11" target="IQGEfThaRfZfYVo38_s_-5">
          <mxGeometry width="50" height="50" relative="1" as="geometry">
            <mxPoint x="380" y="425" as="sourcePoint" />
            <mxPoint x="560" y="325" as="targetPoint" />
          </mxGeometry>
        </mxCell>
        <mxCell id="IQGEfThaRfZfYVo38_s_-20" value="" style="endArrow=none;html=1;rounded=0;shape=link;exitX=1;exitY=0.5;exitDx=0;exitDy=0;entryX=0;entryY=1;entryDx=0;entryDy=0;exitPerimeter=0;width=1;" edge="1" parent="1" source="IQGEfThaRfZfYVo38_s_-9" target="IQGEfThaRfZfYVo38_s_-12">
          <mxGeometry width="50" height="50" relative="1" as="geometry">
            <mxPoint x="390" y="435" as="sourcePoint" />
            <mxPoint x="570" y="335" as="targetPoint" />
          </mxGeometry>
        </mxCell>
        <mxCell id="IQGEfThaRfZfYVo38_s_-21" value="" style="endArrow=none;html=1;rounded=0;shape=link;exitX=1;exitY=0.5;exitDx=0;exitDy=0;entryX=0.283;entryY=-0.08;entryDx=0;entryDy=0;entryPerimeter=0;width=1;" edge="1" parent="1" source="IQGEfThaRfZfYVo38_s_-7" target="IQGEfThaRfZfYVo38_s_-12">
          <mxGeometry width="50" height="50" relative="1" as="geometry">
            <mxPoint x="400" y="445" as="sourcePoint" />
            <mxPoint x="580" y="345" as="targetPoint" />
          </mxGeometry>
        </mxCell>
        <mxCell id="IQGEfThaRfZfYVo38_s_-22" value="" style="endArrow=none;html=1;rounded=0;shape=link;exitX=0.5;exitY=0;exitDx=0;exitDy=0;entryX=0.5;entryY=1;entryDx=0;entryDy=0;width=-1;" edge="1" parent="1" source="IQGEfThaRfZfYVo38_s_-4" target="IQGEfThaRfZfYVo38_s_-1">
          <mxGeometry width="50" height="50" relative="1" as="geometry">
            <mxPoint x="410" y="455" as="sourcePoint" />
            <mxPoint x="590" y="355" as="targetPoint" />
          </mxGeometry>
        </mxCell>
        <mxCell id="IQGEfThaRfZfYVo38_s_-23" value="" style="endArrow=none;html=1;rounded=0;shape=link;exitX=1;exitY=0.5;exitDx=0;exitDy=0;entryX=0;entryY=0.5;entryDx=0;entryDy=0;width=-1;" edge="1" parent="1" source="IQGEfThaRfZfYVo38_s_-1" target="IQGEfThaRfZfYVo38_s_-2">
          <mxGeometry width="50" height="50" relative="1" as="geometry">
            <mxPoint x="420" y="465" as="sourcePoint" />
            <mxPoint x="600" y="365" as="targetPoint" />
          </mxGeometry>
        </mxCell>
        <mxCell id="IQGEfThaRfZfYVo38_s_-24" value="" style="endArrow=none;html=1;rounded=0;shape=link;entryX=0;entryY=0.5;entryDx=0;entryDy=0;exitX=1;exitY=0.5;exitDx=0;exitDy=0;width=-3;" edge="1" parent="1" source="IQGEfThaRfZfYVo38_s_-2" target="IQGEfThaRfZfYVo38_s_-3">
          <mxGeometry width="50" height="50" relative="1" as="geometry">
            <mxPoint x="480" y="105" as="sourcePoint" />
            <mxPoint x="390" y="115" as="targetPoint" />
          </mxGeometry>
        </mxCell>
        <mxCell id="IQGEfThaRfZfYVo38_s_-25" value="" style="endArrow=none;html=1;rounded=0;shape=link;exitX=0.5;exitY=1;exitDx=0;exitDy=0;width=-1;" edge="1" parent="1" source="IQGEfThaRfZfYVo38_s_-2">
          <mxGeometry width="50" height="50" relative="1" as="geometry">
            <mxPoint x="310" y="125" as="sourcePoint" />
            <mxPoint x="430" y="180" as="targetPoint" />
          </mxGeometry>
        </mxCell>
        <mxCell id="IQGEfThaRfZfYVo38_s_-27" value="" style="endArrow=classic;html=1;rounded=0;" edge="1" parent="1">
          <mxGeometry width="50" height="50" relative="1" as="geometry">
            <mxPoint x="220" y="330" as="sourcePoint" />
            <mxPoint x="280" y="290" as="targetPoint" />
          </mxGeometry>
        </mxCell>
        <mxCell id="IQGEfThaRfZfYVo38_s_-28" value="" style="endArrow=classic;html=1;rounded=0;entryX=0.381;entryY=1.021;entryDx=0;entryDy=0;entryPerimeter=0;" edge="1" parent="1" source="IQGEfThaRfZfYVo38_s_-46" target="IQGEfThaRfZfYVo38_s_-4">
          <mxGeometry width="50" height="50" relative="1" as="geometry">
            <mxPoint x="350" y="270" as="sourcePoint" />
            <mxPoint x="410" y="230" as="targetPoint" />
          </mxGeometry>
        </mxCell>
        <mxCell id="IQGEfThaRfZfYVo38_s_-29" value="" style="endArrow=classic;html=1;rounded=0;" edge="1" parent="1">
          <mxGeometry width="50" height="50" relative="1" as="geometry">
            <mxPoint x="410" y="380" as="sourcePoint" />
            <mxPoint x="475" y="340" as="targetPoint" />
          </mxGeometry>
        </mxCell>
        <mxCell id="IQGEfThaRfZfYVo38_s_-30" value="" style="endArrow=classic;html=1;rounded=0;" edge="1" parent="1">
          <mxGeometry width="50" height="50" relative="1" as="geometry">
            <mxPoint x="600" y="290" as="sourcePoint" />
            <mxPoint x="650" y="330" as="targetPoint" />
          </mxGeometry>
        </mxCell>
        <mxCell id="IQGEfThaRfZfYVo38_s_-31" value="" style="endArrow=classic;html=1;rounded=0;exitX=0.672;exitY=1.046;exitDx=0;exitDy=0;exitPerimeter=0;" edge="1" parent="1" source="IQGEfThaRfZfYVo38_s_-4">
          <mxGeometry width="50" height="50" relative="1" as="geometry">
            <mxPoint x="500" y="240" as="sourcePoint" />
            <mxPoint x="550" y="270" as="targetPoint" />
          </mxGeometry>
        </mxCell>
        <mxCell id="IQGEfThaRfZfYVo38_s_-32" value="" style="endArrow=classic;html=1;rounded=0;entryX=0.918;entryY=1.071;entryDx=0;entryDy=0;entryPerimeter=0;exitX=0.5;exitY=0;exitDx=0;exitDy=0;" edge="1" parent="1" source="IQGEfThaRfZfYVo38_s_-12" target="IQGEfThaRfZfYVo38_s_-4">
          <mxGeometry width="50" height="50" relative="1" as="geometry">
            <mxPoint x="610" y="300" as="sourcePoint" />
            <mxPoint x="660" y="340" as="targetPoint" />
          </mxGeometry>
        </mxCell>
        <mxCell id="IQGEfThaRfZfYVo38_s_-33" value="" style="endArrow=classic;html=1;rounded=0;" edge="1" parent="1">
          <mxGeometry width="50" height="50" relative="1" as="geometry">
            <mxPoint x="640" y="400" as="sourcePoint" />
            <mxPoint x="530" y="460" as="targetPoint" />
          </mxGeometry>
        </mxCell>
        <mxCell id="IQGEfThaRfZfYVo38_s_-34" value="" style="endArrow=classic;html=1;rounded=0;exitX=0.376;exitY=-0.088;exitDx=0;exitDy=0;exitPerimeter=0;" edge="1" parent="1" source="IQGEfThaRfZfYVo38_s_-4">
          <mxGeometry width="50" height="50" relative="1" as="geometry">
            <mxPoint x="630" y="320" as="sourcePoint" />
            <mxPoint x="290" y="150" as="targetPoint" />
          </mxGeometry>
        </mxCell>
        <mxCell id="IQGEfThaRfZfYVo38_s_-35" value="" style="endArrow=classic;html=1;rounded=0;" edge="1" parent="1">
          <mxGeometry width="50" height="50" relative="1" as="geometry">
            <mxPoint x="310" y="90" as="sourcePoint" />
            <mxPoint x="360" y="90" as="targetPoint" />
          </mxGeometry>
        </mxCell>
        <mxCell id="IQGEfThaRfZfYVo38_s_-36" value="" style="endArrow=classic;html=1;rounded=0;" edge="1" parent="1">
          <mxGeometry width="50" height="50" relative="1" as="geometry">
            <mxPoint x="490" y="90" as="sourcePoint" />
            <mxPoint x="540" y="90" as="targetPoint" />
          </mxGeometry>
        </mxCell>
        <mxCell id="IQGEfThaRfZfYVo38_s_-37" value="" style="endArrow=classic;html=1;rounded=0;" edge="1" parent="1">
          <mxGeometry width="50" height="50" relative="1" as="geometry">
            <mxPoint x="540" y="120" as="sourcePoint" />
            <mxPoint x="490" y="120" as="targetPoint" />
          </mxGeometry>
        </mxCell>
        <mxCell id="IQGEfThaRfZfYVo38_s_-38" value="" style="endArrow=classic;html=1;rounded=0;" edge="1" parent="1">
          <mxGeometry width="50" height="50" relative="1" as="geometry">
            <mxPoint x="440" y="140" as="sourcePoint" />
            <mxPoint x="440" y="170" as="targetPoint" />
          </mxGeometry>
        </mxCell>
        <mxCell id="IQGEfThaRfZfYVo38_s_-39" value="" style="endArrow=classic;html=1;rounded=0;" edge="1" parent="1">
          <mxGeometry width="50" height="50" relative="1" as="geometry">
            <mxPoint x="310" y="330" as="sourcePoint" />
            <mxPoint x="310" y="360" as="targetPoint" />
          </mxGeometry>
        </mxCell>
        <mxCell id="IQGEfThaRfZfYVo38_s_-41" value="" style="endArrow=classic;html=1;rounded=0;exitX=0.264;exitY=1.006;exitDx=0;exitDy=0;exitPerimeter=0;" edge="1" parent="1" source="IQGEfThaRfZfYVo38_s_-50">
          <mxGeometry width="50" height="50" relative="1" as="geometry">
            <mxPoint x="390" y="280" as="sourcePoint" />
            <mxPoint x="490" y="280" as="targetPoint" />
            <Array as="points" />
          </mxGeometry>
        </mxCell>
        <mxCell id="IQGEfThaRfZfYVo38_s_-44" value="1" style="text;html=1;align=center;verticalAlign=middle;resizable=0;points=[];autosize=1;strokeColor=none;fillColor=none;" vertex="1" parent="1">
          <mxGeometry x="220" y="290" width="30" height="30" as="geometry" />
        </mxCell>
        <mxCell id="IQGEfThaRfZfYVo38_s_-45" value="3" style="text;html=1;align=center;verticalAlign=middle;resizable=0;points=[];autosize=1;strokeColor=none;fillColor=none;" vertex="1" parent="1">
          <mxGeometry x="320" y="230" width="30" height="30" as="geometry" />
        </mxCell>
        <mxCell id="IQGEfThaRfZfYVo38_s_-46" value="2" style="text;html=1;align=center;verticalAlign=middle;resizable=0;points=[];autosize=1;strokeColor=none;fillColor=none;" vertex="1" parent="1">
          <mxGeometry x="310" y="260" width="30" height="30" as="geometry" />
        </mxCell>
        <mxCell id="IQGEfThaRfZfYVo38_s_-47" value="4" style="text;html=1;align=center;verticalAlign=middle;resizable=0;points=[];autosize=1;strokeColor=none;fillColor=none;" vertex="1" parent="1">
          <mxGeometry x="530" y="230" width="30" height="30" as="geometry" />
        </mxCell>
        <mxCell id="IQGEfThaRfZfYVo38_s_-48" value="8" style="text;html=1;align=center;verticalAlign=middle;resizable=0;points=[];autosize=1;strokeColor=none;fillColor=none;" vertex="1" parent="1">
          <mxGeometry x="320" y="60" width="30" height="30" as="geometry" />
        </mxCell>
        <mxCell id="IQGEfThaRfZfYVo38_s_-49" value="7" style="text;html=1;align=center;verticalAlign=middle;resizable=0;points=[];autosize=1;strokeColor=none;fillColor=none;" vertex="1" parent="1">
          <mxGeometry x="290" y="150" width="30" height="30" as="geometry" />
        </mxCell>
        <mxCell id="IQGEfThaRfZfYVo38_s_-50" value="10" style="text;html=1;align=center;verticalAlign=middle;resizable=0;points=[];autosize=1;strokeColor=none;fillColor=none;" vertex="1" parent="1">
          <mxGeometry x="440" y="250" width="40" height="30" as="geometry" />
        </mxCell>
        <mxCell id="IQGEfThaRfZfYVo38_s_-51" value="10" style="text;html=1;align=center;verticalAlign=middle;resizable=0;points=[];autosize=1;strokeColor=none;fillColor=none;" vertex="1" parent="1">
          <mxGeometry x="275" y="330" width="40" height="30" as="geometry" />
        </mxCell>
        <mxCell id="IQGEfThaRfZfYVo38_s_-52" value="10" style="text;html=1;align=center;verticalAlign=middle;resizable=0;points=[];autosize=1;strokeColor=none;fillColor=none;" vertex="1" parent="1">
          <mxGeometry x="425" y="360" width="40" height="30" as="geometry" />
        </mxCell>
        <mxCell id="IQGEfThaRfZfYVo38_s_-53" value="5" style="text;html=1;align=center;verticalAlign=middle;resizable=0;points=[];autosize=1;strokeColor=none;fillColor=none;" vertex="1" parent="1">
          <mxGeometry x="590" y="420" width="30" height="30" as="geometry" />
        </mxCell>
        <mxCell id="IQGEfThaRfZfYVo38_s_-54" value="6" style="text;html=1;align=center;verticalAlign=middle;resizable=0;points=[];autosize=1;strokeColor=none;fillColor=none;" vertex="1" parent="1">
          <mxGeometry x="650" y="270" width="30" height="30" as="geometry" />
        </mxCell>
        <mxCell id="IQGEfThaRfZfYVo38_s_-55" value="3" style="text;html=1;align=center;verticalAlign=middle;resizable=0;points=[];autosize=1;strokeColor=none;fillColor=none;" vertex="1" parent="1">
          <mxGeometry x="610" y="280" width="30" height="30" as="geometry" />
        </mxCell>
        <mxCell id="IQGEfThaRfZfYVo38_s_-56" value="8" style="text;html=1;align=center;verticalAlign=middle;resizable=0;points=[];autosize=1;strokeColor=none;fillColor=none;" vertex="1" parent="1">
          <mxGeometry x="500" y="120" width="30" height="30" as="geometry" />
        </mxCell>
        <mxCell id="IQGEfThaRfZfYVo38_s_-57" value="8" style="text;html=1;align=center;verticalAlign=middle;resizable=0;points=[];autosize=1;strokeColor=none;fillColor=none;" vertex="1" parent="1">
          <mxGeometry x="500" y="60" width="30" height="30" as="geometry" />
        </mxCell>
        <mxCell id="IQGEfThaRfZfYVo38_s_-58" value="8" style="text;html=1;align=center;verticalAlign=middle;resizable=0;points=[];autosize=1;strokeColor=none;fillColor=none;" vertex="1" parent="1">
          <mxGeometry x="445" y="140" width="30" height="30" as="geometry" />
        </mxCell>
        <mxCell id="IQGEfThaRfZfYVo38_s_-60" value="" style="endArrow=none;dashed=1;html=1;dashPattern=1 3;strokeWidth=4;rounded=0;entryX=0.634;entryY=0.996;entryDx=0;entryDy=0;exitX=0;exitY=0;exitDx=0;exitDy=0;fillColor=#d80073;strokeColor=#A50040;entryPerimeter=0;" edge="1" parent="1" source="IQGEfThaRfZfYVo38_s_-7" target="IQGEfThaRfZfYVo38_s_-4">
          <mxGeometry width="50" height="50" relative="1" as="geometry">
            <mxPoint x="360" y="293" as="sourcePoint" />
            <mxPoint x="440" y="240" as="targetPoint" />
          </mxGeometry>
        </mxCell>
        <mxCell id="IQGEfThaRfZfYVo38_s_-62" value="" style="endArrow=none;dashed=1;html=1;dashPattern=1 3;strokeWidth=4;rounded=0;exitX=0.75;exitY=0;exitDx=0;exitDy=0;fillColor=#d80073;strokeColor=#A50040;entryX=0.523;entryY=1.046;entryDx=0;entryDy=0;entryPerimeter=0;" edge="1" parent="1" source="IQGEfThaRfZfYVo38_s_-6" target="IQGEfThaRfZfYVo38_s_-4">
          <mxGeometry width="50" height="50" relative="1" as="geometry">
            <mxPoint x="370" y="303" as="sourcePoint" />
            <mxPoint x="430" y="240" as="targetPoint" />
          </mxGeometry>
        </mxCell>
        <mxCell id="IQGEfThaRfZfYVo38_s_-64" value="" style="endArrow=classic;html=1;rounded=0;" edge="1" parent="1">
          <mxGeometry width="50" height="50" relative="1" as="geometry">
            <mxPoint x="390" y="240" as="sourcePoint" />
            <mxPoint x="360" y="270" as="targetPoint" />
          </mxGeometry>
        </mxCell>
        <mxCell id="IQGEfThaRfZfYVo38_s_-68" value="" style="endArrow=none;dashed=1;html=1;dashPattern=1 3;strokeWidth=4;rounded=0;entryX=0.417;entryY=1.059;entryDx=0;entryDy=0;exitX=1.117;exitY=0.4;exitDx=0;exitDy=0;fillColor=#d80073;strokeColor=#A50040;entryPerimeter=0;exitPerimeter=0;" edge="1" parent="1" source="IQGEfThaRfZfYVo38_s_-46" target="IQGEfThaRfZfYVo38_s_-4">
          <mxGeometry width="50" height="50" relative="1" as="geometry">
            <mxPoint x="540" y="280" as="sourcePoint" />
            <mxPoint x="512" y="240" as="targetPoint" />
          </mxGeometry>
        </mxCell>
        <mxCell id="IQGEfThaRfZfYVo38_s_-69" value="" style="endArrow=classic;html=1;rounded=0;" edge="1" parent="1">
          <mxGeometry width="50" height="50" relative="1" as="geometry">
            <mxPoint x="490" y="240" as="sourcePoint" />
            <mxPoint x="510" y="270" as="targetPoint" />
          </mxGeometry>
        </mxCell>
        <mxCell id="IQGEfThaRfZfYVo38_s_-70" value="" style="endArrow=classic;html=1;rounded=0;startArrow=none;" edge="1" parent="1">
          <mxGeometry width="50" height="50" relative="1" as="geometry">
            <mxPoint x="400" y="310" as="sourcePoint" />
            <mxPoint x="360" y="360" as="targetPoint" />
          </mxGeometry>
        </mxCell>
        <mxCell id="IQGEfThaRfZfYVo38_s_-72" value="9" style="text;html=1;align=center;verticalAlign=middle;resizable=0;points=[];autosize=1;strokeColor=none;fillColor=none;" vertex="1" parent="1">
          <mxGeometry x="475" y="240" width="30" height="30" as="geometry" />
        </mxCell>
        <mxCell id="IQGEfThaRfZfYVo38_s_-73" value="9" style="text;html=1;align=center;verticalAlign=middle;resizable=0;points=[];autosize=1;strokeColor=none;fillColor=none;" vertex="1" parent="1">
          <mxGeometry x="370" y="250" width="30" height="30" as="geometry" />
        </mxCell>
        <mxCell id="IQGEfThaRfZfYVo38_s_-74" value="" style="endArrow=none;html=1;rounded=0;" edge="1" parent="1">
          <mxGeometry width="50" height="50" relative="1" as="geometry">
            <mxPoint x="400" y="310" as="sourcePoint" />
            <mxPoint x="400" y="310" as="targetPoint" />
          </mxGeometry>
        </mxCell>
        <mxCell id="IQGEfThaRfZfYVo38_s_-75" value="9" style="text;html=1;align=center;verticalAlign=middle;resizable=0;points=[];autosize=1;strokeColor=none;fillColor=none;" vertex="1" parent="1">
          <mxGeometry x="384" y="320" width="30" height="30" as="geometry" />
        </mxCell>
      </root>
    </mxGraphModel>
  </diagram>
</mxfile>
